<?xml version="1.0" standalone="no"?>
<!DOCTYPE svg PUBLIC "-//W3C//DTD SVG 20010904//EN"
 "http://www.w3.org/TR/2001/REC-SVG-20010904/DTD/svg10.dtd">
<svg version="1.0" xmlns="http://www.w3.org/2000/svg"
 width="500.000000pt" height="500.000000pt" viewBox="0 0 500.000000 500.000000"
 preserveAspectRatio="xMidYMid meet">

<g transform="translate(0.000000,500.000000) scale(0.100000,-0.100000)"
fill="#000000" stroke="none">
<path d="M0 2500 l0 -2500 2500 0 2500 0 0 2500 0 2500 -2500 0 -2500 0 0
-2500z m2850 1891 c142 -27 343 -93 484 -160 319 -150 617 -420 809 -731 94
-154 204 -418 223 -540 l7 -40 -36 0 c-34 0 -37 2 -47 43 -159 603 -625 1098
-1217 1293 -365 120 -788 119 -1147 -1 -423 -142 -783 -431 -1013 -815 -85
-142 -143 -283 -209 -507 -2 -7 -19 -13 -39 -13 -42 0 -43 7 -15 105 127 444
411 828 805 1088 226 149 521 256 815 297 117 16 451 5 580 -19z m-190 -141
c413 -37 789 -215 1085 -514 138 -139 228 -262 313 -426 58 -109 142 -331 142
-371 0 -21 -29 -26 -34 -6 -21 77 -77 230 -111 302 -208 448 -629 800 -1106
925 -188 49 -310 63 -504 57 -230 -8 -426 -50 -626 -136 -449 -194 -802 -580
-954 -1043 -30 -91 -42 -118 -56 -118 -16 0 -16 5 3 73 151 535 576 981 1112
1166 249 86 475 114 736 91z m-165 -195 c31 -30 32 -69 2 -99 l-23 -23 28 -34
c15 -19 35 -42 44 -52 12 -14 13 -21 3 -33 -28 -34 -90 -3 -104 54 -8 33 -23
52 -41 52 -20 0 -19 -79 1 -86 32 -13 14 -31 -37 -37 -59 -7 -67 -4 -50 23 16
26 4 212 -14 223 -38 22 -6 33 104 36 55 1 66 -2 87 -24z m309 -1 l46 -7 0
-43 c0 -35 -3 -44 -17 -44 -10 0 -25 15 -33 33 -11 23 -22 32 -40 32 -45 0
-37 -34 18 -85 59 -54 72 -89 48 -126 -25 -37 -63 -48 -111 -33 -22 7 -49 13
-60 14 -16 0 -21 8 -23 39 -2 21 -1 44 2 51 7 19 46 7 46 -14 0 -32 30 -62 58
-59 44 5 37 32 -22 90 -63 61 -73 101 -36 138 21 21 48 24 124 14z m-641 -35
c-8 -8 -4 -35 13 -97 31 -111 23 -145 -41 -173 -86 -38 -131 -6 -167 119 -12
41 -28 76 -35 79 -38 15 19 53 80 53 18 0 23 -15 8 -25 -11 -6 24 -139 46
-173 17 -27 60 -27 76 0 16 24 -32 189 -56 196 -28 7 -14 26 29 38 41 12 67 3
47 -17z m878 -30 c54 -19 64 -30 41 -48 -11 -9 -34 -58 -52 -109 -28 -77 -31
-95 -19 -102 24 -16 -17 -23 -55 -10 -43 14 -53 27 -33 43 19 15 80 186 72
205 -4 12 1 32 9 32 2 0 18 -5 37 -11z m-1217 -101 c18 -24 22 -36 14 -45 -14
-17 -33 -16 -48 2 -19 23 -49 18 -62 -10 -14 -32 12 -95 55 -131 36 -30 58
-30 95 1 17 14 33 25 36 25 15 0 4 -52 -14 -70 -70 -70 -166 -45 -216 55 -41
85 -19 142 71 188 41 21 41 21 69 -15z m1490 -22 c54 -22 79 -63 73 -118 -8
-93 -88 -168 -163 -154 -40 8 -90 55 -97 92 -11 58 30 140 87 175 37 23 56 24
100 5z m-1760 -198 c-3 -5 -25 -6 -48 -3 -46 7 -71 -9 -60 -38 8 -23 34 -29
74 -17 84 24 140 -3 140 -68 0 -33 -5 -40 -88 -112 l-23 -21 -40 32 c-35 28
-39 34 -26 46 11 12 19 12 35 4 46 -25 98 -4 90 36 -4 20 -30 22 -109 9 -41
-7 -49 -5 -77 19 -44 37 -43 76 1 116 17 16 41 38 52 49 20 19 20 19 52 -12
18 -17 30 -35 27 -40z m2031 -107 c-10 -51 -16 -94 -13 -96 9 -9 81 74 82 94
1 30 8 30 44 -1 36 -30 41 -48 13 -48 -10 0 -56 -38 -102 -85 -81 -84 -83 -85
-102 -67 -20 20 -18 37 19 212 5 22 -1 18 -45 -25 -32 -31 -51 -58 -51 -72 0
-30 -8 -29 -42 4 -31 29 -38 56 -12 46 21 -8 154 123 154 153 0 35 12 36 43 5
l30 -29 -18 -91z m-856 49 c403 -82 743 -395 853 -785 12 -44 24 -82 25 -84 2
-3 23 14 46 37 l43 42 498 0 499 0 48 -49 49 -48 0 -231 0 -231 -31 -36 c-60
-67 -38 -65 -574 -65 l-486 0 -47 44 -47 44 -28 -88 c-92 -290 -301 -533 -576
-670 -562 -281 -1240 -51 -1520 516 -21 44 -49 111 -61 149 -12 39 -24 76 -26
84 -3 9 -18 0 -49 -28 l-45 -41 -496 0 -497 0 -48 49 -49 48 0 231 0 231 31
36 c60 67 38 65 574 65 l485 0 45 -41 c31 -29 46 -37 49 -28 3 8 12 41 21 74
22 79 82 206 137 292 154 237 427 424 708 483 122 26 341 26 469 0z m-1445
-126 c28 -11 19 -41 -13 -47 -17 -4 -35 -16 -42 -28 -10 -20 -8 -26 16 -46 22
-19 30 -21 42 -12 8 8 12 21 9 35 -8 30 13 36 47 12 31 -22 36 -48 8 -48 -10
0 -25 -7 -32 -16 -12 -14 -9 -20 16 -40 17 -13 35 -24 42 -24 20 0 35 40 29
75 -4 22 -2 36 8 44 12 10 19 5 42 -24 16 -22 24 -39 18 -43 -6 -4 -34 -38
-63 -77 -50 -67 -79 -88 -74 -55 4 22 -160 142 -181 134 -30 -11 -17 26 29 86
25 32 45 63 45 69 0 12 29 15 54 5z m2560 -104 c30 -45 33 -65 10 -56 -22 9
-195 -111 -187 -130 11 -30 -26 -12 -52 25 -28 42 -27 62 3 55 19 -5 176 104
178 124 2 20 4 22 13 22 4 0 20 -18 35 -40z m-2634 -280 c41 -41 10 -110 -47
-110 -34 0 -46 8 -62 38 -34 65 56 125 109 72z m2674 4 c9 -8 16 -31 16 -49 0
-42 -22 -65 -62 -65 -60 0 -88 57 -52 108 18 26 74 30 98 6z m-3149 -1141
c185 -588 630 -1037 1210 -1223 441 -141 919 -108 1345 92 391 183 711 512
895 916 41 91 115 301 115 328 0 2 16 4 36 4 l37 0 -7 -40 c-19 -122 -129
-387 -223 -540 -110 -177 -267 -358 -428 -490 -236 -193 -561 -344 -865 -400
-145 -27 -416 -37 -556 -21 -375 44 -718 187 -1004 418 -97 78 -260 247 -331
343 -137 184 -251 416 -308 623 -28 104 -28 107 13 107 l34 0 37 -117z m130 1
c85 -261 221 -480 420 -679 227 -227 486 -374 801 -454 579 -147 1196 25 1627
453 221 221 368 475 453 784 5 18 34 15 34 -4 0 -9 -16 -64 -36 -123 -276
-827 -1116 -1324 -1979 -1170 -233 42 -509 157 -705 297 -123 87 -327 291
-412 412 -110 156 -209 359 -256 528 -19 67 -19 72 -3 72 13 0 26 -27 56 -116z
m342 54 c47 -44 19 -108 -47 -108 -44 0 -63 19 -63 60 0 63 64 91 110 48z
m2675 5 c21 -19 25 -82 6 -101 -17 -17 -78 -15 -100 5 -10 9 -18 29 -18 45 0
57 70 89 112 51z m-527 -519 c34 -22 18 -56 -23 -49 -18 4 -35 -1 -50 -15
l-23 -19 27 -35 c27 -33 29 -34 47 -19 10 9 15 23 13 30 -11 28 27 27 51 -1
29 -34 25 -52 -9 -48 -14 1 -31 -4 -37 -12 -10 -12 -8 -22 14 -51 15 -19 31
-35 34 -35 18 0 52 50 50 72 -4 27 7 48 25 48 18 0 54 -82 39 -87 -7 -3 -46
-31 -88 -65 -76 -59 -90 -63 -90 -28 0 9 -30 56 -67 103 -50 63 -72 85 -84 80
-11 -4 -15 -1 -13 11 4 16 136 134 152 135 4 1 19 -6 32 -15z m-1628 -31 c19
-9 37 -22 40 -30 3 -7 16 -19 29 -26 l24 -13 -27 -41 c-22 -35 -29 -40 -44
-30 -14 9 -17 19 -13 47 13 77 -55 78 -113 2 -51 -67 -40 -141 22 -156 35 -9
26 -30 -14 -34 -45 -5 -97 36 -112 88 -20 65 20 145 92 189 41 25 70 26 116 4z
m1395 -145 c-1 -14 18 -73 43 -131 25 -58 45 -110 45 -116 0 -5 -9 -13 -21
-16 -14 -5 -46 10 -116 55 -52 33 -97 59 -99 58 -1 -2 10 -32 26 -68 20 -46
35 -66 49 -68 32 -5 25 -19 -19 -42 -53 -27 -63 -26 -56 8 8 36 -64 203 -93
217 -29 13 -21 27 22 44 37 14 37 14 123 -43 47 -32 87 -56 89 -54 9 9 -56
128 -69 128 -30 0 -16 27 22 43 47 19 58 16 54 -15z m-1159 -3 c54 -23 54 -19
33 -182 -7 -56 -9 -108 -4 -115 26 -42 -1 -48 -67 -16 -43 21 -61 48 -31 48
16 0 30 30 19 41 -4 4 -25 15 -46 24 -33 14 -38 14 -43 0 -4 -8 -3 -22 0 -30
9 -26 -19 -28 -63 -5 -43 22 -53 40 -22 40 11 0 54 37 100 86 73 77 80 88 65
99 -16 11 -11 40 5 33 4 -2 28 -12 54 -23z m283 -105 c6 -6 20 -43 29 -83 9
-40 19 -79 21 -87 3 -8 24 19 50 68 42 76 47 82 77 82 47 0 77 -10 77 -26 0
-8 -6 -14 -14 -14 -16 0 -20 -15 -37 -140 -9 -63 -9 -85 0 -88 6 -2 11 -10 11
-18 0 -15 -23 -17 -82 -8 -40 7 -48 20 -23 38 15 11 41 134 33 157 -2 5 -22
-23 -46 -64 -44 -79 -65 -102 -81 -93 -5 3 -19 49 -32 102 -25 104 -32 103
-44 -9 -6 -57 -5 -68 9 -73 12 -4 14 -10 7 -18 -16 -19 -95 -5 -99 17 -2 10 3
17 11 17 17 0 21 14 38 140 9 63 9 85 0 88 -6 2 -11 11 -11 19 0 13 8 15 46 9
26 -3 53 -11 60 -16z m564 -15 c-10 -12 -10 -33 0 -108 13 -102 6 -136 -32
-160 -61 -39 -143 -24 -171 30 -8 15 -20 64 -27 108 -7 51 -17 85 -28 93 -23
18 -6 30 56 38 43 5 52 4 52 -9 0 -8 -4 -17 -10 -19 -12 -4 14 -184 31 -204 6
-8 24 -14 40 -14 44 0 52 26 39 118 -15 100 -18 112 -36 112 -8 0 -14 7 -14
15 0 9 14 16 38 20 20 4 42 8 47 10 19 5 28 -14 15 -30z"/>
<path d="M2380 4038 c1 -47 14 -88 29 -88 25 0 41 20 41 50 0 14 -5 31 -12 38
-16 16 -58 15 -58 0z"/>
<path d="M3250 3801 c-41 -43 -76 -121 -66 -146 17 -47 71 -20 116 58 32 55
38 95 18 115 -19 19 -28 15 -68 -27z"/>
<path d="M2324 3584 c-425 -71 -755 -363 -880 -780 -23 -77 -27 -112 -32 -261
-5 -187 4 -262 44 -381 119 -357 408 -627 772 -724 114 -30 340 -36 469 -13
452 81 809 449 883 908 17 105 8 339 -18 432 -59 217 -148 372 -305 526 -240
237 -599 349 -933 293z m426 -94 c0 -5 -4 -10 -10 -10 -5 0 -10 5 -10 10 0 6
5 10 10 10 6 0 10 -4 10 -10z m-360 -100 c0 -5 -4 -10 -10 -10 -5 0 -10 5 -10
10 0 6 5 10 10 10 6 0 10 -4 10 -10z m592 -72 c-16 -16 -37 4 -28 28 6 16 8
16 23 1 13 -13 15 -19 5 -29z m-872 2 c0 -5 -4 -10 -10 -10 -5 0 -10 5 -10 10
0 6 5 10 10 10 6 0 10 -4 10 -10z m572 -28 c-7 -2 -10 -8 -6 -13 3 -5 -2 -9
-10 -9 -9 0 -16 4 -16 8 0 14 23 31 34 25 6 -4 6 -8 -2 -11z m-711 -5 c8 -7
34 -37 56 -67 23 -30 78 -93 123 -140 45 -47 91 -97 101 -112 l19 -26 48 26
c39 21 44 23 32 7 -8 -11 -28 -30 -43 -44 -15 -13 -44 -56 -64 -95 -45 -89
-132 -226 -144 -226 -16 0 -10 26 12 54 11 14 18 26 14 26 -10 0 -60 -34 -68
-47 -5 -8 -13 -11 -18 -7 -5 3 -8 1 -7 -3 4 -13 -85 -122 -99 -123 -23 0 -14
16 52 94 42 48 86 88 120 107 71 40 79 51 72 99 -4 29 -2 40 8 40 7 0 15 -6
18 -12 2 -7 15 8 27 34 l23 47 -26 40 c-15 22 -35 45 -46 50 -17 10 -18 8 -11
-24 4 -20 4 -38 -1 -41 -12 -7 -29 39 -29 80 0 26 -12 45 -61 97 -34 35 -74
82 -88 103 l-26 39 -8 -44 c-5 -24 -6 -86 -3 -136 2 -55 1 -93 -5 -93 -5 0
-12 14 -16 30 -5 28 -7 29 -18 13 -24 -36 -73 -139 -79 -165 -7 -31 -26 -38
-26 -11 0 30 -23 -3 -51 -74 -24 -61 -49 -93 -49 -63 0 29 64 160 85 174 13 8
47 58 75 111 47 87 52 104 58 177 6 94 2 95 -61 9 -23 -32 -48 -56 -55 -54
-24 9 102 164 133 163 5 0 17 -6 26 -13z m957 -13 c34 -7 82 -46 101 -81 6
-12 11 -41 11 -65 0 -79 -60 -138 -142 -138 -26 0 -50 5 -53 11 -4 5 10 25 30
42 63 55 57 151 -12 188 -53 28 -9 58 65 43z m-588 -153 c0 -12 -29 -23 -41
-15 -5 3 -7 10 -4 15 8 12 45 12 45 0z m197 -13 c11 -13 28 -38 37 -56 9 -18
32 -42 50 -54 18 -12 46 -41 61 -65 15 -24 53 -72 86 -108 32 -36 59 -70 59
-75 0 -5 8 -7 18 -3 28 10 52 35 52 55 0 15 -3 17 -19 8 -11 -5 -24 -10 -30
-10 -19 0 -12 15 12 25 12 6 26 20 32 33 13 29 21 28 29 -3 4 -15 16 -27 31
-31 14 -3 25 -10 25 -15 0 -12 -17 -11 -41 1 -16 9 -19 7 -19 -9 0 -23 25 -51
46 -51 8 0 14 -4 14 -10 0 -14 -33 -13 -48 2 -9 9 -12 2 -12 -34 l0 -45 36 31
c20 17 56 50 80 74 68 66 105 57 162 -38 11 -20 32 -46 46 -59 14 -14 26 -28
26 -32 0 -5 11 -19 25 -33 14 -14 25 -34 25 -46 0 -25 -17 -27 -24 -2 -3 9
-17 31 -31 47 -20 23 -25 25 -21 10 18 -71 18 -75 3 -75 -10 0 -18 20 -27 63
-15 74 -73 177 -78 139 -4 -27 -26 -24 -30 4 -8 48 -12 49 -55 7 -23 -23 -60
-57 -82 -77 -43 -38 -43 -53 3 -84 22 -14 23 -13 44 37 12 28 26 51 30 51 14
0 9 -33 -12 -78 l-20 -43 21 -22 c30 -31 99 -134 99 -146 0 -25 -21 -6 -68 62
-44 64 -64 83 -135 136 -13 9 -10 -1 12 -41 35 -61 36 -68 19 -68 -7 0 -26 26
-43 57 -56 108 -127 218 -169 263 -23 25 -61 73 -85 108 -47 70 -64 77 -32 14
19 -36 19 -58 1 -47 -5 3 -29 49 -56 102 -26 54 -49 92 -51 86 -7 -20 -33 -15
-33 6 0 35 -22 36 -51 2 -30 -37 -49 -26 -23 14 15 23 26 29 47 26 4 0 7 4 7
9 0 18 36 10 57 -12z m-767 -67 c-40 -81 -63 -84 -35 -6 5 16 2 15 -18 -7 -14
-15 -32 -37 -41 -49 -8 -13 -19 -20 -23 -16 -13 14 31 80 72 106 22 14 47 32
55 40 26 25 22 -6 -10 -68z m65 -27 c-12 -19 -20 -23 -28 -15 -8 8 -4 18 13
36 29 31 39 16 15 -21z m544 -57 c-40 -77 -59 -100 -59 -73 0 21 21 66 31 66
5 0 15 14 24 30 9 17 13 30 10 30 -3 0 -1 9 6 21 6 12 15 17 20 12 5 -5 -8
-41 -32 -86z m166 26 c4 -32 16 -83 26 -114 10 -31 20 -87 22 -125 3 -52 10
-80 29 -109 32 -52 52 -104 44 -112 -9 -9 -19 5 -41 57 -11 25 -22 47 -26 50
-17 14 -29 54 -30 102 l0 53 -20 -53 c-12 -31 -25 -50 -31 -46 -7 4 -8 2 -4
-4 4 -7 -5 -24 -19 -39 -15 -16 -33 -41 -42 -58 -34 -63 -86 -135 -99 -135
-20 0 -18 7 20 59 18 25 43 64 54 87 11 22 28 47 38 55 27 22 60 81 72 129 19
76 20 90 12 90 -5 0 -12 12 -17 27 l-9 26 -23 -31 c-21 -31 -51 -43 -51 -22 0
6 3 10 8 10 4 0 20 20 36 45 21 34 27 53 23 74 -6 28 -1 41 14 41 4 0 11 -26
14 -57z m645 7 c0 -5 -4 -10 -10 -10 -5 0 -10 5 -10 10 0 6 5 10 10 10 6 0 10
-4 10 -10z m-1218 -66 c2 -19 0 -38 -5 -41 -12 -7 -13 -4 -20 40 -4 27 -2 37
8 37 7 0 15 -15 17 -36z m-273 -83 c-31 -49 -49 -64 -49 -40 0 13 36 75 59
103 31 35 23 -9 -10 -63z m696 -80 c-15 -22 -34 -41 -41 -41 -19 0 -18 3 17
55 20 30 35 43 41 37 6 -6 0 -24 -17 -51z m-572 17 c-7 -39 -9 -42 -21 -34
-13 8 -2 66 14 66 10 0 12 -9 7 -32z m1493 -7 c-9 -14 -33 -14 -41 -1 -4 6 -1
18 6 26 11 13 14 13 27 0 8 -8 11 -19 8 -25z m-1326 -35 c0 -31 -10 -56 -21
-56 -10 0 -12 40 -3 64 9 24 24 19 24 -8z m724 -12 c3 -9 6 -30 5 -47 l-1 -32
-13 30 c-16 35 -19 65 -6 65 5 0 12 -7 15 -16z m-414 -101 c-1 -14 -70 -103
-80 -103 -17 0 -11 18 23 64 28 40 57 59 57 39z m840 -48 c0 -8 0 -18 1 -22 0
-4 -4 -9 -10 -11 -6 -2 -11 8 -11 22 0 14 5 26 10 26 6 0 10 -7 10 -15z
m-1459 -57 c8 -20 27 -39 47 -47 17 -8 32 -19 32 -24 0 -10 -42 -5 -74 8 -17
7 -18 5 -12 -21 7 -32 48 -74 72 -74 8 0 14 -5 14 -11 0 -12 -40 -8 -74 6 -17
7 -18 5 -12 -21 7 -32 49 -74 72 -74 9 0 14 -6 11 -12 -4 -15 -45 -12 -65 4
-21 18 -26 1 -11 -39 11 -29 22 -40 47 -48 17 -5 32 -15 32 -22 0 -18 -25 -16
-62 3 l-31 16 7 -33 c7 -37 38 -69 67 -69 11 0 19 -7 19 -16 0 -16 -11 -16
-67 1 -22 7 -23 5 -23 -49 0 -31 -4 -56 -10 -56 -6 0 -10 27 -10 60 l0 61 -30
-16 c-16 -8 -36 -15 -45 -15 -24 0 -12 24 13 28 28 4 62 48 62 79 0 23 -1 23
-31 8 -31 -17 -59 -14 -59 5 0 5 9 10 19 10 29 0 60 31 67 67 l6 31 -38 -13
c-22 -7 -42 -11 -46 -8 -15 8 -8 23 11 23 29 0 60 31 67 68 6 31 -7 45 -21 22
-7 -12 -65 -14 -65 -2 0 4 15 13 33 20 33 12 57 46 57 79 0 11 -5 13 -17 8
-31 -13 -73 -18 -73 -8 0 5 15 16 33 24 18 8 38 28 47 46 8 18 18 33 21 33 3
0 12 -15 20 -32z m1677 -16 c4 -23 46 -62 68 -62 8 0 14 -5 14 -11 0 -12 -40
-8 -73 6 -16 7 -17 4 -12 -21 8 -32 48 -74 71 -74 9 0 14 -6 11 -12 -4 -15
-45 -12 -65 4 -21 18 -26 1 -11 -39 11 -29 22 -40 47 -48 34 -10 44 -35 14
-35 -10 0 -27 7 -38 15 -25 19 -31 19 -37 -5 -3 -11 -2 -20 2 -20 4 0 13 -11
19 -25 8 -16 23 -28 42 -31 16 -4 30 -13 30 -20 0 -18 -24 -18 -61 2 l-31 16
7 -34 c9 -40 30 -66 58 -70 11 -2 22 -9 25 -17 3 -10 -3 -12 -24 -9 -16 3 -37
9 -46 13 -16 6 -18 1 -18 -49 0 -31 -4 -56 -10 -56 -6 0 -10 30 -10 70 0 42
-4 70 -10 70 -7 0 -7 6 0 19 5 11 10 29 10 40 0 18 -2 19 -27 5 -16 -7 -36
-14 -46 -14 -26 0 -16 24 11 28 29 4 62 48 62 81 0 15 6 33 13 40 10 10 9 12
-3 9 -12 -2 -14 5 -12 34 l3 36 -38 -13 c-21 -7 -41 -11 -45 -8 -15 8 -8 23
11 23 29 0 60 31 67 68 6 30 4 32 -20 32 -14 0 -26 -4 -26 -10 0 -5 -9 -10
-20 -10 -33 0 -22 14 29 36 44 20 48 24 43 49 -3 21 -1 26 9 23 8 -3 15 -14
17 -26z m-1468 -41 c0 -11 -80 -81 -92 -81 -18 0 -6 21 30 55 36 34 62 44 62
26z m836 -66 c16 -48 17 -55 4 -55 -11 0 -40 64 -40 87 0 27 22 7 36 -32z
m-396 20 c0 -12 -64 -75 -76 -75 -21 0 -17 11 18 47 27 28 58 43 58 28z m330
-159 c81 -79 192 -178 246 -220 l99 -76 25 50 c13 28 30 50 37 50 18 0 17 -2
-17 -70 l-30 -60 -95 0 c-57 0 -95 4 -95 10 0 6 31 10 73 11 71 0 72 0 47 17
-68 47 -193 155 -305 263 l-124 120 -3 -148 c-2 -81 -2 -172 0 -200 3 -48 5
-53 27 -53 13 0 27 -4 30 -10 4 -6 -30 -10 -94 -10 -67 0 -101 4 -101 11 0 6
25 57 55 114 l55 102 0 107 c0 66 -4 105 -10 101 -5 -3 -7 -11 -4 -18 6 -16
-166 -181 -189 -182 -4 0 -13 -10 -20 -22 -11 -21 -116 -112 -184 -161 -25
-18 -33 -20 -33 -9 0 12 129 127 142 127 2 0 32 27 66 60 34 33 73 65 87 70
14 5 28 18 32 27 5 17 122 143 132 143 2 0 70 -65 151 -144z m-652 118 c-4
-20 -34 -41 -44 -31 -8 8 24 47 38 47 5 0 8 -7 6 -16z m1025 -43 c19 -32 22
-51 8 -51 -12 0 -51 67 -44 74 11 11 19 6 36 -23z m194 -13 c27 -25 29 -38 8
-38 -8 0 -15 9 -15 20 0 13 -7 20 -20 20 -11 0 -20 5 -20 10 0 17 22 11 47
-12z m-357 -81 c40 -71 46 -87 31 -87 -9 0 -91 128 -91 143 0 4 6 7 13 7 6 0
28 -28 47 -63z m-774 -26 c-21 -23 -128 -81 -150 -81 -26 0 -18 20 12 31 54
19 97 44 116 67 13 16 22 20 29 13 7 -7 5 -16 -7 -30z m1218 30 c9 -14 -53
-36 -66 -23 -8 8 -5 14 13 21 31 13 46 13 53 2z m-1469 -21 c6 -9 -44 -40 -65
-40 -20 0 -10 19 18 34 32 18 39 19 47 6z m1255 -36 c0 -8 3 -14 8 -14 4 -1
29 -21 56 -45 l48 -43 -21 -23 c-11 -12 -23 -31 -27 -41 -3 -10 -9 -18 -14
-18 -19 0 -18 18 2 50 l20 34 -26 19 c-32 23 -77 87 -70 99 8 12 24 0 24 -18z
m-492 -75 c32 -68 36 -89 12 -74 -16 10 -60 101 -60 125 0 36 14 21 48 -51z
m-205 5 c7 -8 -27 -65 -57 -93 -44 -42 -49 -12 -6 36 22 25 40 50 40 54 0 10
14 12 23 3z m-103 -41 c0 -13 -53 -63 -67 -63 -21 0 -15 13 19 42 33 28 48 34
48 21z m-318 -58 c14 -29 28 -44 38 -42 8 1 20 -3 26 -11 8 -11 44 -14 167
-13 102 1 157 -2 157 -9 0 -6 -65 -10 -188 -10 l-188 0 -27 55 c-29 60 -33 75
-17 75 6 0 20 -20 32 -45z m1328 21 c0 -15 -21 -26 -52 -26 -27 0 -18 23 13
31 36 10 39 10 39 -5z m-1455 -36 c22 -42 19 -50 -20 -50 -39 0 -47 15 -13 24
18 4 20 8 10 18 -6 6 -12 18 -12 25 0 23 19 14 35 -17z m850 -2 c-9 -41 -12
-45 -27 -30 -9 9 -9 18 0 37 17 37 35 32 27 -7z m-785 -1 c0 -19 -27 -53 -36
-45 -9 10 12 58 26 58 5 0 10 -6 10 -13z m1275 -17 c-6 -29 -5 -30 29 -30 20
0 36 -4 36 -10 0 -5 -25 -10 -55 -10 -60 0 -65 6 -38 51 22 38 36 37 28 -1z
m-63 -15 c6 -14 8 -28 4 -33 -9 -8 -36 26 -36 45 0 22 20 14 32 -12z m-330
-10 c9 -19 9 -28 0 -37 -15 -15 -18 -11 -27 30 -8 39 10 44 27 7z m-1022 5 c0
-5 -16 -10 -35 -10 -19 0 -35 5 -35 10 0 6 16 10 35 10 19 0 35 -4 35 -10z
m180 0 c0 -5 -9 -10 -20 -10 -11 0 -20 5 -20 10 0 6 9 10 20 10 11 0 20 -4 20
-10z m1140 -20 c0 -5 -9 -10 -20 -10 -11 0 -20 5 -20 10 0 6 9 10 20 10 11 0
20 -4 20 -10z m-1140 -33 c0 -7 -5 -18 -12 -25 -9 -9 -7 -12 11 -12 35 0 20
-24 -17 -28 -37 -4 -42 13 -16 53 18 27 34 33 34 12z m798 -3 c14 -10 22 -25
22 -45 0 -26 2 -28 19 -17 41 26 69 -42 36 -86 -22 -29 -18 -42 6 -20 17 16
22 16 29 4 6 -8 10 -23 10 -33 0 -22 -47 -70 -60 -62 -16 10 -12 23 10 30 28
9 25 25 -4 25 -13 0 -27 7 -30 16 -7 18 23 76 36 68 4 -3 8 -1 8 5 0 16 -23
26 -52 22 -28 -2 -32 4 -29 40 1 9 -5 22 -14 29 -13 11 -15 9 -15 -13 0 -29
-29 -51 -53 -41 -23 9 -30 -14 -13 -41 31 -47 20 -70 -28 -65 -19 2 -19 1 -3
-24 21 -31 21 -36 2 -36 -20 0 -37 35 -33 73 2 20 8 32 18 32 9 0 14 -7 12
-17 -2 -13 2 -16 13 -12 14 6 14 9 0 30 -19 29 -19 64 -1 89 12 16 16 17 29 6
22 -18 40 -5 27 19 -5 10 -10 23 -10 29 0 16 42 13 68 -5z m-868 -24 c15 -28
1 -49 -17 -25 -15 22 -17 45 -3 45 5 0 14 -9 20 -20z m335 5 c0 -5 -17 -11
-37 -13 -36 -3 -47 5 -31 22 11 10 68 3 68 -9z m713 -9 c3 -12 -1 -17 -10 -14
-7 3 -15 13 -16 22 -3 12 1 17 10 14 7 -3 15 -13 16 -22z m-1098 -5 c13 -26
13 -31 -5 -31 -8 0 -15 4 -15 9 0 5 -3 16 -6 25 -9 23 13 20 26 -3z m621 -4
c-16 -16 -13 -37 4 -37 8 0 15 -4 15 -10 0 -5 -16 -10 -35 -10 -23 0 -35 5
-35 14 0 20 40 67 52 60 6 -4 6 -10 -1 -17z m159 -2 c0 -16 -6 -25 -15 -25
-16 0 -19 9 -9 34 9 25 24 19 24 -9z m538 13 c-7 -19 -38 -22 -38 -4 0 10 9
16 21 16 12 0 19 -5 17 -12z m-160 -16 c2 -7 -3 -12 -12 -12 -9 0 -16 7 -16
16 0 17 22 14 28 -4z m-648 -39 c0 -20 -18 -16 -30 7 -15 28 -1 49 17 25 7
-11 13 -25 13 -32z m46 22 c12 -48 -16 -45 -31 3 -5 16 -2 22 9 22 9 0 18 -11
22 -25z m642 -7 c-2 -22 1 -32 10 -30 6 1 12 -2 12 -8 0 -5 -16 -10 -35 -10
-19 0 -35 3 -35 8 0 10 39 72 45 72 3 0 4 -15 3 -32z m-488 17 c0 -12 -24 -55
-32 -55 -9 0 -11 22 -2 44 5 14 34 24 34 11z m-458 -40 c6 -14 8 -28 4 -33 -9
-8 -36 26 -36 45 0 22 20 14 32 -12z m811 -5 c-3 -11 -12 -20 -19 -20 -17 0
-17 5 -3 31 13 24 29 16 22 -11z m-603 10 c0 -5 -6 -10 -14 -10 -8 0 -18 5
-21 10 -3 6 3 10 14 10 12 0 21 -4 21 -10z m-295 -41 c4 -11 4 -23 2 -26 -9
-8 -24 5 -30 27 -7 27 20 27 28 -1z m130 -9 c-4 -20 -3 -30 5 -30 6 0 8 -4 5
-10 -9 -15 -55 -12 -55 4 0 13 37 66 47 66 2 0 2 -13 -2 -30z m619 9 c20 -16
26 -29 26 -59 0 -21 -4 -41 -9 -45 -12 -7 -23 27 -16 46 3 8 -1 23 -9 34 -15
19 -15 18 -16 -17 0 -26 -6 -40 -19 -48 -38 -20 -43 -2 -10 31 12 12 17 24 12
28 -13 8 -23 38 -16 45 11 11 30 6 57 -15z m-694 -30 c0 -11 -5 -19 -10 -19
-12 0 -30 41 -23 53 8 13 33 -14 33 -34z m160 4 c0 -20 -17 -50 -24 -43 -2 3
-2 17 1 33 6 30 23 37 23 10z m-245 -23 c-3 -5 -13 -10 -21 -10 -8 0 -14 5
-14 10 0 6 9 10 21 10 11 0 17 -4 14 -10z m515 -10 c0 -6 -40 -10 -100 -10
-60 0 -100 4 -100 10 0 6 40 10 100 10 60 0 100 -4 100 -10z m434 -9 c8 -12
-3 -41 -15 -41 -5 0 -9 11 -9 25 0 25 14 34 24 16z m-336 -41 c3 -21 2 -22
-12 -11 -19 16 -21 44 -3 39 6 -3 14 -15 15 -28z m-333 -29 c3 -5 1 -12 -5
-16 -15 -10 -12 -35 5 -35 8 0 15 -4 15 -10 0 -5 -16 -10 -35 -10 -40 0 -42 6
-17 49 18 32 27 37 37 22z m-127 -35 c3 -12 -1 -17 -10 -14 -7 3 -15 13 -16
22 -3 12 1 17 10 14 7 -3 15 -13 16 -22z m56 -2 c12 -48 -14 -44 -29 4 -4 16
-2 22 8 22 8 0 18 -12 21 -26z m501 -9 c0 -25 -4 -31 -27 -33 -36 -4 -56 29
-32 53 9 9 26 15 38 13 16 -2 21 -10 21 -33z m83 23 c9 -9 15 -9 24 0 31 31
76 3 63 -39 -7 -22 -61 -27 -68 -6 -3 9 -7 9 -20 -1 -35 -29 -79 1 -63 44 7
17 47 19 64 2z m-340 -32 c3 -12 -1 -17 -10 -14 -7 3 -15 13 -16 22 -3 12 1
17 10 14 7 -3 15 -13 16 -22z m60 -14 c2 -7 -3 -12 -12 -12 -9 0 -16 7 -16 16
0 17 22 14 28 -4z m37 -22 c-5 -22 -3 -30 5 -28 7 2 15 -3 17 -9 3 -9 -7 -13
-31 -13 -41 0 -41 -1 -22 45 19 44 40 47 31 5z m-131 -2 c18 -26 21 -51 5 -46
-5 2 -19 18 -30 36 -18 27 -18 32 -6 32 9 0 23 -10 31 -22z m70 -21 c15 -24
-3 -35 -20 -13 -8 11 -14 24 -14 29 0 13 22 3 34 -16z"/>
<path d="M2925 3208 c32 -56 32 -105 0 -152 -24 -35 -24 -36 -4 -36 35 0 89
62 89 102 0 19 6 40 13 47 10 10 9 11 -5 6 -13 -5 -19 0 -24 20 -6 25 -17 32
-71 49 l-23 7 25 -43z"/>
<path d="M2858 3003 c7 -3 16 -2 19 1 4 3 -2 6 -13 5 -11 0 -14 -3 -6 -6z"/>
<path d="M2873 2738 c-29 -14 -29 -20 2 -55 l24 -28 1 48 c0 26 -1 47 -2 46
-2 0 -13 -5 -25 -11z"/>
<path d="M2445 2020 l-35 -70 40 0 40 0 0 70 c0 39 -2 70 -5 70 -3 0 -21 -31
-40 -70z"/>
<path d="M2645 1599 c-10 -15 3 -25 16 -12 7 7 7 13 1 17 -6 3 -14 1 -17 -5z"/>
<path d="M2727 1604 c-8 -8 1 -24 14 -24 5 0 9 7 9 15 0 15 -12 20 -23 9z"/>
<path d="M2810 1595 c0 -8 5 -15 10 -15 6 0 10 7 10 15 0 8 -4 15 -10 15 -5 0
-10 -7 -10 -15z"/>
<path d="M279 2751 l-39 -39 0 -212 0 -213 44 -43 43 -44 477 0 476 0 45 41
45 42 0 216 0 217 -38 37 -38 37 -488 0 -488 0 -39 -39z m265 -147 c9 -36 -8
-53 -32 -31 -10 9 -28 17 -40 17 -18 0 -22 -6 -22 -35 0 -34 20 -49 35 -25 15
24 35 9 35 -25 0 -34 -20 -49 -35 -25 -3 6 -13 10 -21 10 -10 0 -14 -12 -14
-40 0 -36 3 -40 25 -40 14 0 30 9 37 20 16 26 48 26 48 1 0 -47 -8 -51 -100
-51 -83 0 -120 10 -85 24 12 4 15 25 15 95 0 75 -3 92 -17 100 -25 14 -5 20
77 24 36 2 70 4 76 5 7 1 15 -10 18 -24z m187 16 c27 0 29 -3 29 -35 0 -42
-13 -44 -43 -9 -15 17 -28 23 -40 19 -27 -11 -20 -44 14 -63 63 -35 79 -52 79
-86 0 -51 -28 -70 -102 -68 -34 1 -62 3 -64 5 -1 1 -4 20 -6 42 -2 30 1 40 13
43 10 2 19 -5 22 -16 2 -11 17 -28 31 -38 26 -16 28 -16 44 0 16 16 15 19 -9
39 -15 12 -40 30 -57 39 -38 20 -51 61 -31 97 14 25 52 42 77 35 8 -2 27 -4
43 -4z m277 -44 c2 -35 0 -46 -11 -46 -8 0 -17 13 -20 30 -4 18 -13 30 -22 30
-22 0 -22 -178 0 -186 34 -13 11 -24 -50 -24 -63 0 -85 12 -45 25 18 6 20 15
20 96 0 75 -3 89 -16 89 -9 0 -21 -13 -27 -30 -16 -41 -37 -39 -37 4 0 60 1
61 108 60 l97 -2 3 -46z m177 40 c80 -34 88 -168 13 -220 -15 -11 -45 -16 -90
-16 -62 0 -84 9 -58 25 6 3 10 46 10 95 0 49 -4 92 -10 95 -5 3 -10 10 -10 15
0 8 18 11 93 18 10 1 33 -4 52 -12z"/>
<path d="M1120 2505 c0 -86 2 -95 19 -95 31 0 46 29 46 92 0 51 -4 63 -24 79
-13 10 -27 19 -32 19 -5 0 -9 -43 -9 -95z"/>
<path d="M3672 2747 l-42 -43 0 -215 0 -215 38 -37 38 -37 488 0 489 0 39 40
38 41 0 211 0 211 -44 43 -43 44 -480 0 -479 0 -42 -43z m240 -144 c21 -18 23
-70 5 -94 -7 -8 -33 -30 -59 -48 -27 -17 -48 -34 -48 -36 0 -9 87 9 101 21 18
17 29 9 29 -21 0 -36 -20 -45 -102 -45 -43 0 -78 3 -78 6 0 14 27 53 67 98 23
26 43 56 43 66 0 31 -11 50 -29 50 -25 0 -33 -11 -19 -27 17 -21 -16 -52 -40
-37 -30 19 -21 57 18 77 39 20 83 16 112 -10z m231 -1 c43 -38 44 -155 1 -199
-23 -23 -81 -31 -119 -17 -42 16 -60 135 -30 194 25 48 104 59 148 22z m201
14 c68 -28 53 -100 -34 -156 -27 -18 -50 -33 -50 -35 0 -9 88 10 102 22 14 13
18 12 27 -5 7 -14 6 -24 -5 -40 -13 -19 -25 -22 -90 -22 -65 0 -74 2 -74 18 0
11 23 45 50 76 36 41 50 66 50 87 0 31 -19 46 -46 35 -13 -5 -14 -9 -4 -21 10
-12 10 -18 0 -30 -16 -19 -34 -19 -50 0 -18 21 -2 55 33 70 41 18 50 18 91 1z
m239 -14 c22 -20 22 -47 -2 -71 -20 -20 -20 -20 0 -26 27 -9 41 -48 29 -80
-11 -30 -46 -45 -104 -45 -47 0 -80 25 -74 57 5 27 42 23 46 -4 6 -41 72 -24
72 18 0 23 -27 49 -44 43 -26 -10 -27 16 -2 27 31 14 39 34 25 60 -13 25 -44
21 -44 -6 0 -25 -42 -34 -51 -10 -20 51 98 81 149 37z"/>
<path d="M4049 2573 c-14 -35 -7 -149 9 -165 9 -9 17 -10 30 -2 13 9 18 28 20
88 3 79 -6 106 -34 106 -8 0 -19 -12 -25 -27z"/>
<path d="M1896 1214 c-21 -25 -37 -46 -35 -48 10 -8 49 -26 57 -26 9 0 28 108
20 115 -2 2 -20 -17 -42 -41z"/>
</g>
</svg>
